<?xml version="1.0" encoding="UTF-8" standalone="no"?>
<svg
   width="63.249599mm"
   height="13.146838mm"
   viewBox="0 0 239.05361 49.688837"
   fill="none"
   version="1.1"
   id="svg156"
   xmlns="http://www.w3.org/2000/svg"
   xmlns:svg="http://www.w3.org/2000/svg">
  <defs
     id="defs160" />
  <g
     id="g3215"
     transform="translate(-31.988454,-25.155583)">
    <g
       aria-label="Sphinx"
       id="text3199"
       style="font-size:40.3497px;font-family:'Nimbus Roman';-inkscape-font-specification:'Nimbus Roman, Normal';fill:#616161;stroke-width:4.78873">
      <path
         d="m 50.105469,44.384601 v -8.755885 h -1.210491 c -0.322798,1.089442 -0.564896,1.37189 -1.29119,1.37189 -0.363148,0 -0.847344,-0.12105 -1.694688,-0.403497 -1.856086,-0.685945 -3.147276,-0.928044 -4.720915,-0.928044 -5.487559,0 -8.836584,3.106927 -8.836584,8.231339 0,3.510424 2.098184,6.052456 6.899799,8.352389 l 2.703429,1.29119 c 3.550774,1.694687 4.519167,2.74378 4.519167,4.882314 0,2.784129 -1.977135,4.559516 -5.084062,4.559516 -2.380633,0 -4.357768,-1.008743 -5.891057,-2.985878 -1.089442,-1.492939 -1.654337,-2.824479 -2.340282,-5.648958 h -1.170142 v 9.966376 h 1.170142 c 0.242098,-1.049092 0.564896,-1.37189 1.210491,-1.37189 0.322797,0 0.766644,0.121049 1.654337,0.403497 1.977136,0.685945 3.470075,0.968393 5.245462,0.968393 5.971755,0 10.006725,-3.429724 10.006725,-8.513787 0,-3.026227 -1.815736,-6.052455 -4.438467,-7.343645 l -5.931406,-2.945529 c -3.268326,-1.613988 -4.156019,-2.62273 -4.156019,-4.559516 0,-2.501681 1.694688,-4.03497 4.438467,-4.03497 1.815737,0 3.510424,0.766644 4.963013,2.259583 1.37189,1.41224 2.017485,2.582381 2.824479,5.205112 z"
         style="font-weight:bold;-inkscape-font-specification:'Nimbus Roman, Bold'"
         id="path3217" />
      <path
         d="m 64.79275,70.975054 c -2.420982,-0.0807 -3.066577,-0.847344 -3.147277,-3.631473 v -5.689308 c 1.936786,1.896436 2.945528,2.420982 4.761265,2.420982 4.559516,0 7.747143,-4.196369 7.747143,-10.168125 0,-5.648958 -3.026228,-9.44183 -7.505045,-9.44183 -2.380632,0 -3.833221,0.928043 -5.084062,3.268326 v -2.784129 h -7.706793 v 0.968392 c 1.775387,0.242099 2.178884,0.685945 2.178884,2.380633 v 20.2152 c -0.04035,1.694687 -0.363147,2.017485 -2.259583,2.340283 v 0.968392 H 64.79275 Z M 61.645473,49.589712 c 0,-0.282448 0.363148,-0.928043 0.847344,-1.452589 0.806994,-0.887693 1.735037,-1.37189 2.622731,-1.37189 2.098184,0 3.066577,2.420982 3.066577,7.706793 0,5.003363 -1.089442,7.383995 -3.429725,7.383995 -1.33154,0 -2.501681,-0.928043 -3.106927,-2.461331 z"
         style="font-weight:bold;-inkscape-font-specification:'Nimbus Roman, Bold'"
         id="path3219" />
      <path
         d="m 96.991801,62.582316 c -1.41224,-0.04035 -1.977135,-0.766644 -1.977135,-2.420982 V 50.154608 c 0,-3.470074 -2.138534,-5.689308 -5.44721,-5.689308 -2.138534,0 -3.631473,0.806994 -5.729657,3.147277 V 36.274311 h -7.747143 v 0.968393 c 1.856086,0.363147 2.098184,0.605245 2.138534,2.340282 v 20.578348 c -0.04035,1.735037 -0.363147,2.098184 -2.138534,2.420982 v 0.968393 h 9.724278 v -0.968393 c -1.452589,-0.161399 -1.977135,-0.806994 -1.977135,-2.299933 v -10.77337 c 0,-0.161399 0.282447,-0.564896 0.685944,-0.968393 0.887694,-0.887693 1.856087,-1.37189 2.78413,-1.37189 1.412239,0 2.098184,1.089442 2.098184,3.349025 v 9.764628 c -0.04035,1.533289 -0.564896,2.178884 -1.896436,2.299933 v 0.968393 h 9.48218 z"
         style="font-weight:bold;-inkscape-font-specification:'Nimbus Roman, Bold'"
         id="path3221" />
      <path
         d="m 108.16866,62.582316 c -1.37189,-0.161399 -1.89644,-0.766644 -1.89644,-2.299933 V 44.949497 h -7.747143 v 0.968392 c 1.775383,0.322798 2.098183,0.685945 2.138533,2.380633 v 11.862812 c -0.0404,1.694687 -0.3228,2.017485 -2.138533,2.420982 v 0.968393 h 9.643583 z m -4.72092,-26.913251 c -1.73504,0 -3.14728,1.41224 -3.14728,3.106927 0,1.815737 1.33154,3.147277 3.10693,3.147277 1.77539,0 3.14728,-1.33154 3.14728,-3.106927 0,-1.775387 -1.37189,-3.147277 -3.10693,-3.147277 z"
         style="font-weight:bold;-inkscape-font-specification:'Nimbus Roman, Bold'"
         id="path3223" />
      <path
         d="m 130.84519,62.582316 c -1.49294,-0.0807 -2.01749,-0.685945 -1.97714,-2.299933 V 50.154608 c 0,-3.470074 -2.13853,-5.689308 -5.44721,-5.689308 -2.42098,0 -4.27707,1.129792 -5.77,3.510424 v -3.026227 h -7.7068 v 0.968392 c 1.77539,0.282448 2.09819,0.645596 2.13854,2.380633 v 11.862812 c -0.0403,1.735037 -0.36315,2.098184 -2.13854,2.420982 v 0.968393 h 9.72428 v -0.968393 c -1.45259,-0.161399 -1.97713,-0.806994 -1.97713,-2.299933 v -10.77337 c 0,-0.121049 0.28244,-0.564896 0.68594,-0.968393 0.88769,-0.887693 1.85609,-1.37189 2.78413,-1.37189 1.41224,0 2.09818,1.089442 2.09818,3.349025 v 9.764628 c -0.0404,1.533289 -0.56489,2.178884 -1.89643,2.299933 v 0.968393 h 9.48218 z"
         style="font-weight:bold;-inkscape-font-specification:'Nimbus Roman, Bold'"
         id="path3225" />
      <path
         d="m 151.06037,62.582316 c -0.64559,-0.201749 -0.92804,-0.363147 -1.21049,-0.806994 l -5.97176,-9.199732 4.07532,-5.084062 c 0.76665,-0.928043 1.57364,-1.37189 2.82448,-1.573639 v -0.968392 h -6.77875 v 0.968392 c 1.93679,0.201749 2.05784,0.242099 2.05784,0.968393 0,0.605246 -0.4035,1.291191 -1.53329,2.582381 -0.2421,0.242098 -0.84734,1.008743 -1.45259,1.856086 -0.84734,-1.129791 -1.37189,-1.856086 -1.53329,-2.098184 -0.84734,-1.29119 -1.33154,-2.178884 -1.33154,-2.501682 0,-0.524546 0.52455,-0.766644 1.89644,-0.806994 v -0.968392 h -10.08743 v 0.968392 c 1.0491,0.201749 1.29119,0.363148 2.09819,1.573639 l 5.16476,7.948891 c -1.17014,1.492939 -2.25958,2.824479 -2.62273,3.389375 -1.12979,1.573638 -2.25958,2.824479 -3.02623,3.308675 -0.36315,0.242098 -0.80699,0.363148 -1.53329,0.443847 v 0.968393 h 6.8191 v -0.968393 c -1.49294,-0.0807 -2.01748,-0.363147 -2.01748,-0.968393 0,-0.645595 1.04909,-2.299933 2.58238,-4.156019 0.12105,-0.121049 0.36314,-0.443847 0.64559,-0.806994 0.7263,1.129792 1.29119,1.977135 1.69469,2.542031 l 0.60525,0.887693 c 0.40349,0.605246 0.72629,1.37189 0.72629,1.694688 0,0.484196 -0.52455,0.726295 -1.81574,0.806994 v 0.968393 h 9.72428 z"
         style="font-weight:bold;-inkscape-font-specification:'Nimbus Roman, Bold'"
         id="path3227" />
    </g>
    <g
       aria-label="Book"
       id="text3203"
       style="font-weight:bold;font-size:17.5813px;-inkscape-font-specification:'sans-serif, Bold';fill:#616161;stroke-width:5.5374">
      <path
         d="m 168.61768,37.632825 c 3.38937,0.201748 3.83322,0.605245 3.87357,3.631473 v 17.915267 c -0.0404,3.026228 -0.5649,3.510424 -3.87357,3.631473 v 0.766644 h 13.4768 c 3.10692,0 6.0121,-0.847343 7.50504,-2.219233 1.45259,-1.29119 2.25958,-3.106927 2.25958,-5.043713 0,-1.775387 -0.68594,-3.389375 -1.97713,-4.559516 -1.21049,-1.089442 -2.29993,-1.573638 -4.92266,-2.219233 2.09818,-0.524547 2.94552,-0.928044 3.91392,-1.775387 1.00874,-0.887694 1.61398,-2.340283 1.61398,-4.03497 0,-4.519167 -3.63147,-6.85945 -10.57162,-6.85945 h -11.29791 z m 7.98924,12.790855 c 3.91392,0 5.77001,0.242098 7.22259,0.847344 2.29994,0.928043 3.38938,2.582381 3.38938,5.084062 0,2.178884 -0.84734,3.752522 -2.46133,4.680565 -1.29119,0.726295 -2.94553,1.049093 -5.60861,1.049093 -1.97714,0 -2.54203,-0.363148 -2.54203,-1.654338 z m 0,-1.573638 V 39.56961 c 0.0403,-0.887693 0.20175,-1.129791 0.88769,-1.170141 l 1.77539,-0.04035 c 4.47881,-0.121049 7.10155,1.936786 7.10155,5.527909 0,3.187627 -2.05784,4.882314 -5.93141,4.922664 z"
         style="font-weight:normal;font-size:40.3497px;font-family:'Nimbus Roman';-inkscape-font-specification:'Nimbus Roman, Normal'"
         id="path3230" />
      <path
         d="m 204.9324,45.01682 c -5.28581,0 -8.91728,3.873571 -8.91728,9.44183 0,5.487559 3.75252,9.52253 8.83658,9.52253 5.08406,0 8.95763,-4.236719 8.95763,-9.845328 0,-5.32616 -3.71217,-9.119032 -8.87693,-9.119032 z m -0.52455,1.129792 c 3.38938,0 5.77001,3.873571 5.77001,9.40148 0,4.599866 -1.81574,7.303296 -4.84196,7.303296 -1.57364,0 -3.06658,-0.968393 -3.91392,-2.582381 -1.1298,-2.098184 -1.77539,-4.922663 -1.77539,-7.787492 0,-3.833222 1.85609,-6.334903 4.76126,-6.334903 z"
         style="font-weight:normal;font-size:40.3497px;font-family:'Nimbus Roman';-inkscape-font-specification:'Nimbus Roman, Normal'"
         id="path3232" />
      <path
         d="m 225.10717,45.01682 c -5.28581,0 -8.91728,3.873571 -8.91728,9.44183 0,5.487559 3.75252,9.52253 8.83658,9.52253 5.08407,0 8.95764,-4.236719 8.95764,-9.845328 0,-5.32616 -3.71217,-9.119032 -8.87694,-9.119032 z m -0.52454,1.129792 c 3.38937,0 5.77001,3.873571 5.77001,9.40148 0,4.599866 -1.81574,7.303296 -4.84197,7.303296 -1.57364,0 -3.06658,-0.968393 -3.91392,-2.582381 -1.12979,-2.098184 -1.77539,-4.922663 -1.77539,-7.787492 0,-3.833222 1.85609,-6.334903 4.76127,-6.334903 z"
         style="font-weight:normal;font-size:40.3497px;font-family:'Nimbus Roman';-inkscape-font-specification:'Nimbus Roman, Normal'"
         id="path3234" />
      <path
         d="m 235.47697,63.577682 h 9.44183 v -0.605245 l -0.807,-0.04035 c -1.69468,-0.121049 -2.17888,-0.564896 -2.21923,-2.057834 v -7.424345 l 5.64896,7.545394 c 0.1614,0.201748 0.28245,0.403497 0.40349,0.524546 0.3228,0.403497 0.44385,0.645595 0.44385,0.847343 0,0.363148 -0.36315,0.605246 -0.84734,0.605246 h -0.76665 v 0.605245 h 8.79624 v -0.605245 c -1.77539,-0.121049 -3.02623,-0.887693 -4.72092,-2.945528 l -6.1735,-7.827842 1.17014,-1.089442 c 5.04371,-4.519167 6.13315,-5.164762 8.71554,-5.084062 v -0.605246 h -8.23134 v 0.564896 c 1.57363,0.04035 2.01748,0.201748 2.01748,0.726295 0,0.363147 -0.36315,0.887693 -0.92804,1.412239 l -5.52791,4.922664 V 36.099536 l -0.1614,-0.0807 c -1.57364,0.484196 -2.74378,0.847343 -5.04371,1.452589 l -1.21049,0.322798 v 0.645595 c 0.52454,-0.04035 0.88769,-0.0807 1.29119,-0.0807 1.37189,0 1.73503,0.524547 1.73503,2.461332 v 19.448556 c -0.0403,2.138534 -0.16139,2.259583 -3.02622,2.70343 z"
         style="font-weight:normal;font-size:40.3497px;font-family:'Nimbus Roman';-inkscape-font-specification:'Nimbus Roman, Normal'"
         id="path3236" />
    </g>
    <g
       id="g3213"
       transform="matrix(1.0087433,0,0,1.0087433,-1.3610511,-0.4371636)">
      <g
         aria-label="}"
         transform="scale(-1,1)"
         id="text3207"
         style="font-weight:bold;font-size:21.4539px;-inkscape-font-specification:'sans-serif, Bold';fill:#f37726;stroke-width:6.75715">
        <path
           d="m -167.47126,26.000237 c 3.83309,0.915366 5.14893,2.688889 5.20614,7.036879 v 9.611347 c 0.0572,4.862884 1.14421,6.293144 5.37778,7.322932 -4.23357,1.086997 -5.32057,2.574468 -5.37778,7.380141 v 9.611347 c -0.0572,4.347991 -1.37305,6.121513 -5.20614,7.036879 v 0.629315 c 7.09409,0 9.32529,-1.887943 9.43971,-7.952246 V 56.49338 c 0.0572,-4.004728 1.087,-5.434988 4.86289,-6.521985 -3.77589,-1.029788 -4.80568,-2.460048 -4.86289,-6.464776 v -10.12624 c -0.17163,-6.178724 -2.34562,-8.009456 -9.43971,-8.009456 z"
           style="font-weight:normal;font-size:57.2104px;font-family:'Nimbus Roman';-inkscape-font-specification:'Nimbus Roman, Normal'"
           id="path3239" />
      </g>
      <g
         aria-label="}"
         id="text3211"
         style="font-weight:bold;font-size:21.4539px;-inkscape-font-specification:'sans-serif, Bold';fill:#f37726;stroke-width:6.75715">
        <path
           d="m 255.73945,26.000237 c 3.83309,0.915366 5.14893,2.688889 5.20614,7.036879 v 9.611347 c 0.0572,4.862884 1.14421,6.293144 5.37778,7.322932 -4.23357,1.086997 -5.32057,2.574468 -5.37778,7.380141 v 9.611347 c -0.0572,4.347991 -1.37305,6.121513 -5.20614,7.036879 v 0.629315 c 7.09409,0 9.32529,-1.887943 9.43971,-7.952246 V 56.49338 c 0.0572,-4.004728 1.087,-5.434988 4.86289,-6.521985 -3.77589,-1.029788 -4.80568,-2.460048 -4.86289,-6.464776 v -10.12624 c -0.17163,-6.178724 -2.34562,-8.009456 -9.43971,-8.009456 z"
           style="font-weight:normal;font-size:57.2104px;font-family:'Nimbus Roman';-inkscape-font-specification:'Nimbus Roman, Normal'"
           id="path3242" />
      </g>
    </g>
  </g>
</svg>
